
/* XPM */
static char * minimizeI_xpm[] = {
"18 42 3 1",
" 	c None",
".	c #222",
"+	c #7c818c",
"..................",
"..................",
"..................",
"..................",
"..................",
"..................",
"..................",
"..................",
".....+++++++......",
".....+++++++......",
"..................",
"..................",
"..................",
"..................",
"..................",
"..................",
"..................",
"..................",
"..................",
"..................",
"..................",
"..................",
"..................",
"..................",
"..................",
"..................",
"..................",
"..................",
"..................",
"..................",
"..................",
"..................",
".....+++++++......",
".....+++++++......",
"..................",
"..................",
"..................",
"..................",
"..................",
"..................",
"..................",
".................."};


