<?xml version="1.0" encoding="UTF-8" standalone="no"?>
<!-- Generator: Adobe Illustrator 19.0.0, SVG Export Plug-In . SVG Version: 6.00 Build 0)  -->

<svg
   version="1.1"
   id="Capa_1"
   x="0px"
   y="0px"
   viewBox="0 0 11 11"
   xml:space="preserve"
   sodipodi:docname="arrow-up.svg"
   width="11"
   height="11"
   inkscape:version="1.1.1 (3bf5ae0d25, 2021-09-20)"
   xmlns:inkscape="http://www.inkscape.org/namespaces/inkscape"
   xmlns:sodipodi="http://sodipodi.sourceforge.net/DTD/sodipodi-0.dtd"
   xmlns="http://www.w3.org/2000/svg"
   xmlns:svg="http://www.w3.org/2000/svg"
   xmlns:rdf="http://www.w3.org/1999/02/22-rdf-syntax-ns#"
   xmlns:cc="http://creativecommons.org/ns#"
   xmlns:dc="http://purl.org/dc/elements/1.1/"><metadata
     id="metadata39"><rdf:RDF><cc:Work
         rdf:about=""><dc:format>image/svg+xml</dc:format><dc:type
           rdf:resource="http://purl.org/dc/dcmitype/StillImage" /></cc:Work></rdf:RDF></metadata><defs
     id="defs37" /><sodipodi:namedview
     pagecolor="#ffffff"
     bordercolor="#666666"
     borderopacity="1"
     objecttolerance="10"
     gridtolerance="10"
     guidetolerance="10"
     inkscape:pageopacity="0"
     inkscape:pageshadow="2"
     inkscape:window-width="1361"
     inkscape:window-height="918"
     id="namedview35"
     showgrid="false"
     inkscape:pagecheckerboard="true"
     inkscape:zoom="44.953451"
     inkscape:cx="5.6614118"
     inkscape:cy="5.8504963"
     inkscape:window-x="428"
     inkscape:window-y="59"
     inkscape:window-maximized="0"
     inkscape:current-layer="Capa_1" /><path
     d="m 5.6372537,3.0975398 3.3334136,6.548395 c 0.035171,0.069325 0.038835,0.1591937 0.010337,0.2332578 C 8.952164,9.9534808 8.8954975,10 8.8334969,10 H 2.1666715 C 2.1046678,10 2.0478349,9.9534881 2.0190011,9.8791926 2.0063311,9.8462211 2,9.8100983 2,9.7741982 2,9.7292663 2.0100022,9.6845565 2.0295011,9.64594 L 5.3629133,3.097545 C 5.3940796,3.0363538 5.4452496,3 5.5000841,3 5.5549174,3 5.6060865,3.036577 5.6372536,3.097545 Z"
     id="path2"
     inkscape:connector-curvature="0"
     style="fill:#ffffff;stroke-width:0.193998" /><g
     id="g4"
     transform="matrix(1,0,0,-1,0,41.999001)" /><g
     id="g6"
     transform="matrix(1,0,0,-1,0,41.999001)" /><g
     id="g8"
     transform="matrix(1,0,0,-1,0,41.999001)" /><g
     id="g10"
     transform="matrix(1,0,0,-1,0,41.999001)" /><g
     id="g12"
     transform="matrix(1,0,0,-1,0,41.999001)" /><g
     id="g14"
     transform="matrix(1,0,0,-1,0,41.999001)" /><g
     id="g16"
     transform="matrix(1,0,0,-1,0,41.999001)" /><g
     id="g18"
     transform="matrix(1,0,0,-1,0,41.999001)" /><g
     id="g20"
     transform="matrix(1,0,0,-1,0,41.999001)" /><g
     id="g22"
     transform="matrix(1,0,0,-1,0,41.999001)" /><g
     id="g24"
     transform="matrix(1,0,0,-1,0,41.999001)" /><g
     id="g26"
     transform="matrix(1,0,0,-1,0,41.999001)" /><g
     id="g28"
     transform="matrix(1,0,0,-1,0,41.999001)" /><g
     id="g30"
     transform="matrix(1,0,0,-1,0,41.999001)" /><g
     id="g32"
     transform="matrix(1,0,0,-1,0,41.999001)" /></svg>
