/* XPM */
static char * top_right_active_xpm[] = {
"2 34 3 1",
" 	c None",
".	c #757A7F",
"x	c #4B5055 s active_color_2",
"..",
"x.",
"x.",
"x.",
"x.",
"x.",
"x.",
"x.",
"x.",
"x.",
"x.",
"x.",
"x.",
"x.",
"x.",
"x.",
"x.",
"x.",
"x.",
"x.",
"x.",
"x.",
"x.",
"x.",
"x.",
"x.",
"x.",
"x.",
"x.",
"x.",
"x.",
"x.",
"x.",
"x."};
