
/* XPM */
static char * maximizeA_xpm[] = {
"18 42 4 1",
" 	c None",
".	c #5294E2",
"+	c #222",
"@	c #D3DAE3",
"..................",
"..................",
"..................",
"++++++++++++++++++",
"++++@@@@@@@@@+++++",
"++++@@@@@@@@@+++++",
"++++@@+++++@@+++++",
"++++@@+++++@@+++++",
"++++@@+++++@@+++++",
"++++@@+++++@@+++++",
"++++@@+++++@@+++++",
"++++@@@@@@@@@+++++",
"++++@@@@@@@@@+++++",
"++++++++++++++++++",
"++++++++++++++++++",
"++++++++++++++++++",
"++++++++++++++++++",
"++++++++++++++++++",
"++++++++++++++++++",
"++++++++++++++++++",
"++++++++++++++++++",
"++++++++++++++++++",
"..................",
"..................",
"..................",
"++++++++++++++++++",
"++++@@@@@@@@@+++++",
"++++@@@@@@@@@+++++",
"++++@@+++++@@+++++",
"++++@@+++++@@+++++",
"++++@@+++++@@+++++",
"++++@@+++++@@+++++",
"++++@@+++++@@+++++",
"++++@@@@@@@@@+++++",
"++++@@@@@@@@@+++++",
"++++++++++++++++++",
"++++++++++++++++++",
"++++++++++++++++++",
"++++++++++++++++++",
"++++++++++++++++++",
"++++++++++++++++++",
"++++++++++++++++++",};


