
/* XPM */
static char * xterm_xpm[] = {
"20 20 3 1",
" 	c None",
".	c #222",
"+	c #D3DAE3",
"                    ",
" .................. ",
" .++++++++++++++++. ",
" .+..............+. ",
" .+..............+. ",
" .+..............+. ",
" .+..............+. ",
" .+..............+. ",
" .+..............+. ",
" .+.+............+. ",
" .+..+...........+. ",
" .+...+..........+. ",
" .+....+.........+. ",
" .+...+..........+. ",
" .+..+...........+. ",
" .+.+.....+++++..+. ",
" .+..............+. ",
" .++++++++++++++++. ",
" .................. ",
"                    "};


